<?xml version="1.0" encoding="UTF-8"?>
<svg width="40px" height="53px" viewBox="0 0 40 53" version="1.1" xmlns="http://www.w3.org/2000/svg" xmlns:xlink="http://www.w3.org/1999/xlink">
    <!-- Generator: Sketch 62 (91390) - https://sketch.com -->
    <title>SkipCash_logo_big@3x</title>
    <desc>Created with Sketch.</desc>
    <g id="SkipCash_logo_big" stroke="none" stroke-width="1" fill="none" fill-rule="evenodd">
        <g id="Group">
            <path d="M25.6865866,20.8968346 L22.8258888,18.2191859 C22.8201491,18.2138134 22.8121134,18.2127389 22.8063736,18.2073664 L21.2107196,16.7148889 L34.679647,4.10780536 C35.42926,3.40615825 35.6427792,2.40150274 35.2375519,1.48603056 C34.8311767,0.569483872 33.9219983,0 32.8624381,0 L18.467113,0 C17.4925012,0.00107449787 16.5442924,0.18696263 15.6488894,0.552291906 C15.6293742,0.560887889 15.6144508,0.575930859 15.5960836,0.584526842 C15.5777164,0.593122825 15.5570532,0.594197323 15.538686,0.603867804 L14.4045088,1.2098846 C14.376958,1.22492757 14.3494071,1.24104504 14.3218563,1.25931151 C14.232316,1.32055788 14.1496634,1.38717675 14.0681587,1.45594462 L13.8844863,1.60100183 C13.7409923,1.70845162 13.5986461,1.8180504 13.4700755,1.93839416 L1.6312407,13.0186162 C-0.5441294,15.0569387 -0.5441294,18.3728391 1.63353661,20.4111616 L13.9740266,31.8932458 C13.9786184,31.8975438 13.9832103,31.9018418 13.9878021,31.9061398 L16.8324285,34.567671 C16.8416121,34.576267 16.8530917,34.578416 16.8622753,34.5859375 L18.4430059,36.071968 L4.97178265,48.6812006 C4.22216963,49.3817732 4.00865045,50.3864287 4.41387771,51.3029754 C4.81910496,52.2195221 5.72943134,52.7879314 6.78899156,52.7879314 L21.1843167,52.7879314 C22.1623722,52.7868569 23.112877,52.5998943 24.0105759,52.232416 C24.0254992,52.225969 24.0369788,52.2141496 24.0519022,52.2077026 C24.0771571,52.1969576 24.10356,52.1915851 24.128815,52.1786911 L25.241181,51.5834193 C25.2790634,51.5640784 25.3261295,51.5318434 25.3605681,51.50713 C25.4386289,51.4544796 25.5109499,51.3953822 25.6510001,51.2793364 L25.749724,51.2041216 C25.9012537,51.0902248 26.0516355,50.9752535 26.1870939,50.8484628 L38.0259287,39.7682407 C40.2024467,37.7299183 40.2012988,34.4140178 38.0236328,32.3756954 L25.6865866,20.8968346 Z M21.3679891,33.2578581 C21.1418424,33.5135886 20.9042162,33.7617976 20.6539626,34.0024851 L19.7574116,34.8405935 L18.0595898,33.2438896 C16.0736319,31.3495499 15.125423,28.770755 15.3860083,25.986731 C15.4491457,25.3194678 15.5777164,24.6586517 15.7671285,24.0107294 C15.9324337,23.450916 16.1516926,22.9039966 16.4053902,22.3688967 C16.4455685,22.2840114 16.4777112,22.1980515 16.5201854,22.1142407 C17.1400798,20.8871641 17.9918606,19.7428239 19.0445331,18.7413919 L19.8974618,17.9462634 L21.5654369,19.5075089 C23.5743539,21.4061466 24.5351902,23.9956865 24.2700131,26.8001259 C24.0530501,29.1156688 23.040556,31.3656674 21.3679891,33.2578581 L21.3679891,33.2578581 Z M18.467113,1.74068655 L32.8624381,1.74068655 C33.3032518,1.74068655 33.4765927,2.05551443 33.5190669,2.15221924 C33.5615412,2.24784955 33.6763364,2.58524188 33.3652413,2.8764308 L19.8963139,15.4835143 L19.0686401,14.7088014 L19.0651962,14.7055779 C16.9919939,12.7360233 15.7464654,10.1926868 15.5559053,7.54190056 C15.5455737,7.39469435 15.537538,7.23029618 15.5329462,7.05085503 C15.5329462,7.02399259 15.5340942,6.99068315 15.5329462,6.9638207 C15.5306503,6.80586952 15.5295023,6.64254584 15.5352421,6.46525369 C15.5352421,6.45021072 15.5363901,6.43409325 15.537538,6.41905028 C15.5650889,5.59168692 15.6925116,4.57198844 16.0529687,3.49534158 C16.0541167,3.48889459 16.0575605,3.4824476 16.0598564,3.47600061 C16.1448049,3.22241912 16.2446768,2.96668862 16.3571761,2.70880913 C16.3927627,2.62822179 16.4363849,2.54763445 16.4742673,2.46597261 C16.5419965,2.3230644 16.6154655,2.18015618 16.6923783,2.03617347 C17.2629107,1.84168935 17.8586981,1.74176105 18.467113,1.74068655 L18.467113,1.74068655 Z M2.94794229,19.179787 C1.4957823,17.8205472 1.4957823,15.6092306 2.94679434,14.2489163 L14.0084652,3.89612928 C13.9923939,3.96274815 13.9866541,4.02399453 13.9717307,4.0906134 C13.9097413,4.36568485 13.8569355,4.63538382 13.8167571,4.8975613 C13.7995378,5.01575606 13.7869104,5.12750384 13.771987,5.24354961 C13.7455841,5.45737469 13.723773,5.66367828 13.7099975,5.86353488 C13.7019619,5.97420817 13.6939262,6.08058345 13.6893344,6.18695874 C13.6801508,6.38681535 13.675559,6.57377798 13.675559,6.75536812 C13.675559,6.83595546 13.6732631,6.9176173 13.674411,6.99283215 C13.6778549,7.23674316 13.6870385,7.46238772 13.7008139,7.65794633 C13.917777,10.6944773 15.3274627,13.6042176 17.7094643,15.8961293 C17.7243876,15.9111645 17.7381631,15.9262075 17.7530865,15.9391014 L18.5819082,16.7159634 L17.7255356,17.5153898 C15.3113914,19.8094428 13.8224969,22.7643119 13.5343608,25.8341523 C13.4999222,26.2027051 13.4895906,26.5658854 13.4907386,26.9279912 C13.4907386,27.0279195 13.4941825,27.1267733 13.4964784,27.2267016 C13.505662,27.518965 13.5263251,27.8090794 13.5584678,28.0959703 C13.5665035,28.1679617 13.5710953,28.2421021 13.5802789,28.3140934 C13.6216052,28.6224743 13.6721151,28.9276317 13.7398443,29.2284911 L2.94794229,19.179787 Z M21.1831687,51.0472449 L6.78899156,51.0472449 C6.34817777,51.0472449 6.17483694,50.732417 6.13236269,50.6367867 C6.08988845,50.5400819 5.97509319,50.203764 6.28618833,49.9115006 L19.7585596,37.3011936 L20.5850854,38.0759066 C20.5919731,38.0812791 20.5977129,38.0855771 20.6034527,38.092024 C22.6697673,40.0594296 23.9118519,42.5995426 24.1012641,45.2449564 C24.1115957,45.3932371 24.1196314,45.5587097 24.1242232,45.7381509 C24.1265191,45.8112167 24.1242232,45.8971766 24.1242232,45.9756149 C24.1242232,46.0862882 24.1265191,46.1926635 24.1230752,46.3119328 C24.1196314,46.4580645 24.1081518,46.6160157 24.0978203,46.7739668 C24.0943764,46.8330642 24.0920805,46.8878636 24.0874887,46.94911 C24.0691214,47.1618606 24.0438665,47.3842816 24.0094279,47.6131497 C24.00828,47.6217457 24.007132,47.6303416 24.0059841,47.6389376 C23.8980765,48.3545532 23.7017766,49.1357132 23.3711663,49.9243946 C23.3677224,49.9351396 23.3631306,49.9448101 23.3596868,49.955555 C23.2689985,50.1683056 23.1622389,50.3799817 23.0520355,50.5916578 C23.0244846,50.6443082 22.9992297,50.6969586 22.9693829,50.7485345 C22.3965546,50.9462421 21.7973233,51.0472449 21.1831687,51.0472449 L21.1831687,51.0472449 Z M36.710375,38.5379407 L25.6487042,48.8907276 C25.6647755,48.8241088 25.6716632,48.7617879 25.6865866,48.695169 C25.7474281,48.4200976 25.8002339,48.1514731 25.8404122,47.8903701 C25.8587795,47.7711009 25.871407,47.6582786 25.8851824,47.5422328 C25.9115853,47.3284077 25.9333964,47.1231787 25.9483198,46.923322 C25.9552075,46.8126488 25.9632432,46.7062735 25.967835,46.5998982 C25.9770186,46.4000416 25.9816104,46.2141535 25.9816104,46.0336378 C25.9827584,45.951976 25.9850543,45.8692396 25.9827584,45.7929503 C25.9793145,45.5501138 25.9701309,45.3233947 25.9563555,45.1289106 C25.7393924,42.0923796 24.3308546,39.1826394 21.9477051,36.8907354 C21.9178583,36.859575 21.8845677,36.829489 21.8501291,36.8015521 L21.8524251,36.7994031 L21.0741132,36.0708935 L21.9764039,35.2252637 C24.3641453,32.9376578 25.8369684,29.9989061 26.1228086,26.9527046 C26.1583951,26.5820028 26.1675787,26.2155991 26.1664308,25.8513443 C26.1664308,25.7524905 26.1629869,25.6557857 26.160691,25.5580064 C26.1515074,25.2539235 26.1308442,24.9541386 26.0964057,24.6565027 C26.089518,24.5941818 26.0860741,24.5297119 26.0780384,24.467391 C26.0367121,24.1611591 25.9862022,23.8581507 25.919621,23.5605148 L36.7092271,33.6070699 C38.1613871,34.9663097 38.1613871,37.1776264 36.710375,38.5379407 L36.710375,38.5379407 Z" id="Fill-1" fill="#FFFFFF"></path>
            <path d="M25.2506602,44.1742192 C25.0407082,41.2301923 23.3579244,39.2538952 21.0741132,37.0697946 L19.1127636,35.3701537 L4.97178265,48.6812006 C3.59279963,49.9799495 3.91502425,52.7879314 6.78899156,52.7879314 L21.2142452,52.7879314 C22.605787,52.7879314 23.5761198,52.505613 24.1252436,51.9409762 C25.421114,49.7381798 25.4606122,47.1182462 25.2506602,44.1742192 Z" id="Fill-22"></path>
            <path d="M19.1127636,35.3701537 L21.0741132,37.0697946 C21.0752796,37.0719941 24.9737904,40.1667053 25.3463522,44.7443812 C25.4913797,46.5263373 25.1595673,49.9732726 23.8508665,52.1837672 C24.876308,51.6947886 25.6990393,51.1883052 26.3190603,50.6643169 L38.4190659,39.3763609 C40.2736419,37.6266609 39.6902592,33.9261437 37.8345168,32.1775435 L31.9791888,26.6557059 L21.2107196,16.7148889 C23.5061948,18.8637976 24.6118561,22.561441 24.3132577,25.7551109 C24.0368209,28.7123348 23.4303659,30.9350331 21.2107196,33.4206513 L19.1127636,35.3701537 Z" id="Fill-10"></path>
        </g>
    </g>
</svg>